<svg width="129" height="39" viewBox="0 0 129 39" fill="none" xmlns="http://www.w3.org/2000/svg">
<path d="M40.92 10C40.9627 10 40.984 10.064 40.984 10.192C40.984 10.32 40.9627 10.384 40.92 10.384C40.1947 10.384 39.5653 10.576 39.032 10.96C38.4987 11.344 38.04 11.9947 37.656 12.912L30.84 29.968C30.8187 30.0533 30.7013 30.096 30.488 30.096C30.3173 30.096 30.2 30.0533 30.136 29.968L25.976 20.88L22.36 29.968C22.3387 30.0533 22.2213 30.096 22.008 30.096C21.8373 30.096 21.72 30.0533 21.656 29.968L13.688 12.656C13.304 11.8027 12.92 11.216 12.536 10.896C12.152 10.5547 11.6293 10.384 10.968 10.384C10.904 10.384 10.872 10.32 10.872 10.192C10.872 10.064 10.904 10 10.968 10L12.184 10.032C12.7813 10.0747 13.2613 10.096 13.624 10.096C14.392 10.096 15.224 10.0747 16.12 10.032L17.432 10C17.496 10 17.528 10.064 17.528 10.192C17.528 10.32 17.496 10.384 17.432 10.384C16.792 10.384 16.312 10.4587 15.992 10.608C15.6933 10.7573 15.544 11.0133 15.544 11.376C15.544 11.696 15.6507 12.08 15.864 12.528L22.68 27.152L25.56 19.984L22.2 12.656C21.816 11.824 21.432 11.2373 21.048 10.896C20.664 10.5547 20.1627 10.384 19.544 10.384C19.48 10.384 19.448 10.32 19.448 10.192C19.448 10.064 19.48 10 19.544 10L20.728 10.032C21.3253 10.0747 21.7947 10.096 22.136 10.096C22.7333 10.096 23.352 10.0747 23.992 10.032L24.856 10C24.92 10 24.952 10.064 24.952 10.192C24.952 10.32 24.92 10.384 24.856 10.384C24.472 10.384 24.1947 10.416 24.024 10.48C23.8747 10.544 23.8 10.672 23.8 10.864C23.8 11.1413 23.992 11.696 24.376 12.528L26.712 17.52L28.6 12.752C28.8347 12.112 28.952 11.632 28.952 11.312C28.952 10.992 28.8453 10.7573 28.632 10.608C28.4187 10.4587 28.0773 10.384 27.608 10.384C27.544 10.384 27.512 10.32 27.512 10.192C27.512 10.064 27.544 10 27.608 10L28.344 10.032C28.7707 10.0747 29.2187 10.096 29.688 10.096C30.1147 10.096 30.6053 10.0747 31.16 10.032L32.472 10C32.5147 10 32.536 10.064 32.536 10.192C32.536 10.32 32.5147 10.384 32.472 10.384C31.7467 10.384 31.128 10.576 30.616 10.96C30.1253 11.3227 29.688 11.9733 29.304 12.912L27.128 18.384L31.192 27.152L36.92 12.816C37.0907 12.368 37.176 11.9947 37.176 11.696C37.176 11.248 36.984 10.9173 36.6 10.704C36.216 10.4907 35.608 10.384 34.776 10.384C34.712 10.384 34.68 10.32 34.68 10.192C34.68 10.064 34.712 10 34.776 10L36.088 10.032C36.8133 10.0747 37.4747 10.096 38.072 10.096C38.4987 10.096 38.9893 10.0747 39.544 10.032L40.92 10ZM54.8153 25.744C54.8153 25.68 54.8686 25.648 54.9753 25.648C55.1033 25.648 55.1673 25.68 55.1673 25.744C55.0179 27.28 54.9433 28.5387 54.9433 29.52C54.9433 29.6907 54.9113 29.8187 54.8473 29.904C54.7833 29.968 54.6553 30 54.4633 30H42.7513C42.7086 30 42.6873 29.936 42.6873 29.808C42.6873 29.68 42.7086 29.616 42.7513 29.616C43.4553 29.616 43.9673 29.5627 44.2873 29.456C44.6073 29.3493 44.8206 29.1467 44.9273 28.848C45.0553 28.528 45.1193 28.048 45.1193 27.408V17.616C45.1193 16.976 45.0553 16.5067 44.9273 16.208C44.8206 15.9093 44.6073 15.7067 44.2873 15.6C43.9673 15.472 43.4553 15.408 42.7513 15.408C42.7086 15.408 42.6873 15.344 42.6873 15.216C42.6873 15.088 42.7086 15.024 42.7513 15.024H53.8873C54.1006 15.024 54.2073 15.1093 54.2073 15.28L54.2393 17.264C54.2606 17.6693 54.2713 18.1813 54.2713 18.8C54.2713 18.864 54.2073 18.896 54.0793 18.896C53.9513 18.896 53.8873 18.864 53.8873 18.8C53.8019 17.8187 53.4393 17.0187 52.7993 16.4C52.1806 15.76 51.4126 15.44 50.4953 15.44H49.5993C48.8526 15.44 48.3086 15.504 47.9673 15.632C47.6259 15.7387 47.3913 15.9413 47.2633 16.24C47.1353 16.5387 47.0713 17.008 47.0713 17.648V22.032C49.1406 22.0107 50.5486 21.9573 51.2953 21.872C52.0633 21.7653 52.5006 21.712 52.6073 21.712C52.7139 21.712 52.7673 21.936 52.7673 22.384C52.7673 22.8747 52.7139 23.12 52.6073 23.12C52.5219 23.12 52.0953 23.0667 51.3273 22.96C50.5593 22.832 49.1406 22.7467 47.0713 22.704V27.28C47.0713 27.8987 47.1353 28.368 47.2633 28.688C47.3913 28.9867 47.6259 29.2 47.9673 29.328C48.3299 29.4347 48.8739 29.488 49.5993 29.488H51.1353C51.9886 29.488 52.7566 29.1467 53.4393 28.464C54.1219 27.76 54.5806 26.8533 54.8153 25.744ZM67.995 21.712C69.531 21.8187 70.715 22.1813 71.547 22.8C72.379 23.4187 72.795 24.304 72.795 25.456C72.795 26.8427 72.2403 27.9733 71.131 28.848C70.0217 29.7013 68.5923 30.128 66.843 30.128C66.2883 30.128 65.6377 30.096 64.891 30.032C64.5923 30.0107 64.2403 29.9893 63.835 29.968C63.4297 29.9467 62.9923 29.936 62.523 29.936L60.667 29.968C60.3043 29.9893 59.8137 30 59.195 30C59.1523 30 59.131 29.936 59.131 29.808C59.131 29.68 59.1523 29.616 59.195 29.616C59.9203 29.616 60.443 29.5627 60.763 29.456C61.1043 29.3493 61.3283 29.1467 61.435 28.848C61.563 28.528 61.627 28.048 61.627 27.408V17.616C61.627 16.976 61.563 16.5067 61.435 16.208C61.3283 15.9093 61.1043 15.7067 60.763 15.6C60.443 15.472 59.931 15.408 59.227 15.408C59.1843 15.408 59.163 15.344 59.163 15.216C59.163 15.088 59.1843 15.024 59.227 15.024L60.667 15.056C61.4777 15.0987 62.0963 15.12 62.523 15.12C63.099 15.12 63.6857 15.088 64.283 15.024C64.4963 15.0027 64.795 14.9813 65.179 14.96C65.5843 14.9387 65.9363 14.928 66.235 14.928C67.771 14.928 68.9657 15.2053 69.819 15.76C70.6723 16.3147 71.099 17.0933 71.099 18.096C71.099 18.928 70.8217 19.664 70.267 20.304C69.7123 20.9227 68.955 21.392 67.995 21.712ZM65.403 15.344C64.891 15.344 64.507 15.408 64.251 15.536C63.995 15.6427 63.8137 15.8667 63.707 16.208C63.6003 16.528 63.547 17.0187 63.547 17.68V21.712C63.9097 21.7333 64.4217 21.744 65.083 21.744C66.491 21.744 67.5043 21.552 68.123 21.168C68.763 20.7627 69.083 19.9627 69.083 18.768C69.083 17.5733 68.7737 16.7093 68.155 16.176C67.5363 15.6213 66.619 15.344 65.403 15.344ZM66.267 29.616C69.211 29.616 70.683 28.4747 70.683 26.192C70.683 24.976 70.235 24.016 69.339 23.312C68.443 22.608 67.067 22.256 65.211 22.256C64.4643 22.256 63.9097 22.2773 63.547 22.32V27.408C63.547 28.2187 63.7283 28.7947 64.091 29.136C64.475 29.456 65.2003 29.616 66.267 29.616ZM97.4685 29.616C97.5112 29.616 97.5325 29.68 97.5325 29.808C97.5325 29.936 97.5112 30 97.4685 30H93.3405C92.8072 30 91.8045 29.0933 90.3325 27.28C88.8818 25.4453 87.1112 22.896 85.0205 19.632C84.5085 19.7813 83.9325 19.856 83.2925 19.856C82.8872 19.856 82.4072 19.8347 81.8525 19.792V27.408C81.8525 28.0693 81.9165 28.5493 82.0445 28.848C82.1725 29.1467 82.4178 29.3493 82.7805 29.456C83.1645 29.5627 83.7618 29.616 84.5725 29.616C84.6365 29.616 84.6685 29.68 84.6685 29.808C84.6685 29.936 84.6365 30 84.5725 30C83.9112 30 83.3885 29.9893 83.0045 29.968L80.7965 29.936L78.6205 29.968C78.2365 29.9893 77.6925 30 76.9885 30C76.9458 30 76.9245 29.936 76.9245 29.808C76.9245 29.68 76.9458 29.616 76.9885 29.616C77.7992 29.616 78.3965 29.5627 78.7805 29.456C79.1645 29.328 79.4312 29.1147 79.5805 28.816C79.7298 28.5173 79.8045 28.048 79.8045 27.408V12.592C79.8045 11.952 79.7298 11.4827 79.5805 11.184C79.4525 10.8853 79.1965 10.6827 78.8125 10.576C78.4498 10.448 77.8632 10.384 77.0525 10.384C76.9885 10.384 76.9565 10.32 76.9565 10.192C76.9565 10.064 76.9885 10 77.0525 10L78.6205 10.032C79.5165 10.0747 80.2418 10.096 80.7965 10.096C81.1805 10.096 81.5432 10.0853 81.8845 10.064C82.2258 10.0427 82.5245 10.0213 82.7805 10C83.4632 9.936 84.0818 9.904 84.6365 9.904C86.3645 9.904 87.6978 10.256 88.6365 10.96C89.5752 11.664 90.0445 12.6453 90.0445 13.904C90.0445 14.928 89.7458 15.8987 89.1485 16.816C88.5512 17.712 87.7618 18.4267 86.7805 18.96C88.5938 21.6693 90.1192 23.792 91.3565 25.328C92.5938 26.8427 93.6925 27.9413 94.6525 28.624C95.6125 29.2853 96.5512 29.616 97.4685 29.616ZM81.8525 18.992C82.3858 19.0773 83.0152 19.12 83.7405 19.12C85.2125 19.12 86.2685 18.8107 86.9085 18.192C87.5485 17.552 87.8685 16.496 87.8685 15.024C87.8685 11.9307 86.5672 10.384 83.9645 10.384C83.3885 10.384 82.9512 10.4373 82.6525 10.544C82.3752 10.6293 82.1725 10.832 82.0445 11.152C81.9165 11.4507 81.8525 11.952 81.8525 12.656V18.992ZM111.928 25.744C111.928 25.68 111.981 25.648 112.088 25.648C112.216 25.648 112.28 25.68 112.28 25.744C112.13 27.28 112.056 28.5387 112.056 29.52C112.056 29.6907 112.024 29.8187 111.96 29.904C111.896 29.968 111.768 30 111.576 30H99.8638C99.8211 30 99.7998 29.936 99.7998 29.808C99.7998 29.68 99.8211 29.616 99.8638 29.616C100.568 29.616 101.08 29.5627 101.4 29.456C101.72 29.3493 101.933 29.1467 102.04 28.848C102.168 28.528 102.232 28.048 102.232 27.408V17.616C102.232 16.976 102.168 16.5067 102.04 16.208C101.933 15.9093 101.72 15.7067 101.4 15.6C101.08 15.472 100.568 15.408 99.8638 15.408C99.8211 15.408 99.7998 15.344 99.7998 15.216C99.7998 15.088 99.8211 15.024 99.8638 15.024H111C111.213 15.024 111.32 15.1093 111.32 15.28L111.352 17.264C111.373 17.6693 111.384 18.1813 111.384 18.8C111.384 18.864 111.32 18.896 111.192 18.896C111.064 18.896 111 18.864 111 18.8C110.914 17.8187 110.552 17.0187 109.912 16.4C109.293 15.76 108.525 15.44 107.608 15.44H106.712C105.965 15.44 105.421 15.504 105.08 15.632C104.738 15.7387 104.504 15.9413 104.376 16.24C104.248 16.5387 104.184 17.008 104.184 17.648V22.032C106.253 22.0107 107.661 21.9573 108.408 21.872C109.176 21.7653 109.613 21.712 109.72 21.712C109.826 21.712 109.88 21.936 109.88 22.384C109.88 22.8747 109.826 23.12 109.72 23.12C109.634 23.12 109.208 23.0667 108.44 22.96C107.672 22.832 106.253 22.7467 104.184 22.704V27.28C104.184 27.8987 104.248 28.368 104.376 28.688C104.504 28.9867 104.738 29.2 105.08 29.328C105.442 29.4347 105.986 29.488 106.712 29.488H108.248C109.101 29.488 109.869 29.1467 110.552 28.464C111.234 27.76 111.693 26.8533 111.928 25.744ZM118.964 17.616C118.964 18.256 119.124 18.8213 119.444 19.312C119.785 19.7813 120.201 20.176 120.692 20.496C121.182 20.816 121.833 21.1893 122.644 21.616C123.518 22.0853 124.222 22.5013 124.756 22.864C125.289 23.2053 125.737 23.6427 126.1 24.176C126.462 24.7093 126.644 25.3493 126.644 26.096C126.644 26.8853 126.42 27.6107 125.972 28.272C125.545 28.912 124.926 29.424 124.116 29.808C123.305 30.192 122.356 30.384 121.268 30.384C119.71 30.384 118.42 30.0107 117.396 29.264C117.289 29.2213 117.214 29.1573 117.172 29.072C117.15 28.9867 117.129 28.848 117.108 28.656L116.788 25.488C116.766 25.4027 116.809 25.3493 116.916 25.328C117.044 25.3067 117.129 25.3387 117.172 25.424C117.47 26.6613 118.057 27.7173 118.932 28.592C119.828 29.4453 120.82 29.872 121.908 29.872C122.654 29.872 123.294 29.6587 123.828 29.232C124.382 28.784 124.66 28.1013 124.66 27.184C124.66 26.2027 124.34 25.4027 123.7 24.784C123.06 24.1653 122.132 23.536 120.916 22.896C120.062 22.4267 119.38 22.0213 118.868 21.68C118.377 21.3173 117.961 20.88 117.62 20.368C117.278 19.856 117.108 19.2373 117.108 18.512C117.108 17.296 117.577 16.3467 118.516 15.664C119.454 14.9813 120.596 14.64 121.94 14.64C123.07 14.64 124.137 14.8853 125.14 15.376C125.332 15.4827 125.449 15.568 125.492 15.632C125.556 15.6747 125.598 15.7707 125.62 15.92L125.844 18.704C125.844 18.7893 125.78 18.8427 125.652 18.864C125.545 18.8853 125.481 18.8533 125.46 18.768C125.353 18.2347 125.108 17.6907 124.724 17.136C124.361 16.56 123.881 16.08 123.284 15.696C122.708 15.312 122.068 15.12 121.364 15.12C120.596 15.12 119.998 15.3547 119.572 15.824C119.166 16.2933 118.964 16.8907 118.964 17.616Z" fill="#782AD5"/>
<path d="M1 8L1 34" stroke="#782AD5" stroke-width="1.5"/>
</svg>
