<svg width="129" height="39" viewBox="0 0 129 39" fill="none" xmlns="http://www.w3.org/2000/svg">
<path d="M40.7127 10C40.7553 10 40.7767 10.064 40.7767 10.192C40.7767 10.32 40.7553 10.384 40.7127 10.384C39.9873 10.384 39.358 10.576 38.8247 10.96C38.2913 11.344 37.8327 11.9947 37.4487 12.912L30.6327 29.968C30.6113 30.0533 30.494 30.096 30.2807 30.096C30.11 30.096 29.9927 30.0533 29.9287 29.968L25.7687 20.88L22.1527 29.968C22.1313 30.0533 22.014 30.096 21.8007 30.096C21.63 30.096 21.5127 30.0533 21.4487 29.968L13.4807 12.656C13.0967 11.8027 12.7127 11.216 12.3287 10.896C11.9447 10.5547 11.422 10.384 10.7607 10.384C10.6967 10.384 10.6647 10.32 10.6647 10.192C10.6647 10.064 10.6967 10 10.7607 10L11.9767 10.032C12.574 10.0747 13.054 10.096 13.4167 10.096C14.1847 10.096 15.0167 10.0747 15.9127 10.032L17.2247 10C17.2887 10 17.3207 10.064 17.3207 10.192C17.3207 10.32 17.2887 10.384 17.2247 10.384C16.5847 10.384 16.1047 10.4587 15.7847 10.608C15.486 10.7573 15.3367 11.0133 15.3367 11.376C15.3367 11.696 15.4433 12.08 15.6567 12.528L22.4727 27.152L25.3527 19.984L21.9927 12.656C21.6087 11.824 21.2247 11.2373 20.8407 10.896C20.4567 10.5547 19.9553 10.384 19.3367 10.384C19.2727 10.384 19.2407 10.32 19.2407 10.192C19.2407 10.064 19.2727 10 19.3367 10L20.5207 10.032C21.118 10.0747 21.5873 10.096 21.9287 10.096C22.526 10.096 23.1447 10.0747 23.7847 10.032L24.6487 10C24.7127 10 24.7447 10.064 24.7447 10.192C24.7447 10.32 24.7127 10.384 24.6487 10.384C24.2647 10.384 23.9873 10.416 23.8167 10.48C23.6673 10.544 23.5927 10.672 23.5927 10.864C23.5927 11.1413 23.7847 11.696 24.1687 12.528L26.5047 17.52L28.3927 12.752C28.6273 12.112 28.7447 11.632 28.7447 11.312C28.7447 10.992 28.638 10.7573 28.4247 10.608C28.2113 10.4587 27.87 10.384 27.4007 10.384C27.3367 10.384 27.3047 10.32 27.3047 10.192C27.3047 10.064 27.3367 10 27.4007 10L28.1367 10.032C28.5633 10.0747 29.0113 10.096 29.4807 10.096C29.9073 10.096 30.398 10.0747 30.9527 10.032L32.2647 10C32.3073 10 32.3287 10.064 32.3287 10.192C32.3287 10.32 32.3073 10.384 32.2647 10.384C31.5393 10.384 30.9207 10.576 30.4087 10.96C29.918 11.3227 29.4807 11.9733 29.0967 12.912L26.9207 18.384L30.9847 27.152L36.7127 12.816C36.8833 12.368 36.9687 11.9947 36.9687 11.696C36.9687 11.248 36.7767 10.9173 36.3927 10.704C36.0087 10.4907 35.4007 10.384 34.5687 10.384C34.5047 10.384 34.4727 10.32 34.4727 10.192C34.4727 10.064 34.5047 10 34.5687 10L35.8807 10.032C36.606 10.0747 37.2673 10.096 37.8647 10.096C38.2913 10.096 38.782 10.0747 39.3367 10.032L40.7127 10ZM54.6079 25.744C54.6079 25.68 54.6612 25.648 54.7679 25.648C54.8959 25.648 54.9599 25.68 54.9599 25.744C54.8106 27.28 54.7359 28.5387 54.7359 29.52C54.7359 29.6907 54.7039 29.8187 54.6399 29.904C54.5759 29.968 54.4479 30 54.2559 30H42.5439C42.5012 30 42.4799 29.936 42.4799 29.808C42.4799 29.68 42.5012 29.616 42.5439 29.616C43.2479 29.616 43.7599 29.5627 44.0799 29.456C44.3999 29.3493 44.6132 29.1467 44.7199 28.848C44.8479 28.528 44.9119 28.048 44.9119 27.408V17.616C44.9119 16.976 44.8479 16.5067 44.7199 16.208C44.6132 15.9093 44.3999 15.7067 44.0799 15.6C43.7599 15.472 43.2479 15.408 42.5439 15.408C42.5012 15.408 42.4799 15.344 42.4799 15.216C42.4799 15.088 42.5012 15.024 42.5439 15.024H53.6799C53.8932 15.024 53.9999 15.1093 53.9999 15.28L54.0319 17.264C54.0532 17.6693 54.0639 18.1813 54.0639 18.8C54.0639 18.864 53.9999 18.896 53.8719 18.896C53.7439 18.896 53.6799 18.864 53.6799 18.8C53.5946 17.8187 53.2319 17.0187 52.5919 16.4C51.9732 15.76 51.2052 15.44 50.2879 15.44H49.3919C48.6452 15.44 48.1012 15.504 47.7599 15.632C47.4186 15.7387 47.1839 15.9413 47.0559 16.24C46.9279 16.5387 46.8639 17.008 46.8639 17.648V22.032C48.9332 22.0107 50.3412 21.9573 51.0879 21.872C51.8559 21.7653 52.2932 21.712 52.3999 21.712C52.5066 21.712 52.5599 21.936 52.5599 22.384C52.5599 22.8747 52.5066 23.12 52.3999 23.12C52.3146 23.12 51.8879 23.0667 51.1199 22.96C50.3519 22.832 48.9332 22.7467 46.8639 22.704V27.28C46.8639 27.8987 46.9279 28.368 47.0559 28.688C47.1839 28.9867 47.4186 29.2 47.7599 29.328C48.1226 29.4347 48.6666 29.488 49.3919 29.488H50.9279C51.7812 29.488 52.5492 29.1467 53.2319 28.464C53.9146 27.76 54.3732 26.8533 54.6079 25.744ZM67.7877 21.712C69.3237 21.8187 70.5077 22.1813 71.3397 22.8C72.1717 23.4187 72.5877 24.304 72.5877 25.456C72.5877 26.8427 72.033 27.9733 70.9237 28.848C69.8143 29.7013 68.385 30.128 66.6357 30.128C66.081 30.128 65.4303 30.096 64.6837 30.032C64.385 30.0107 64.033 29.9893 63.6277 29.968C63.2223 29.9467 62.785 29.936 62.3157 29.936L60.4597 29.968C60.097 29.9893 59.6063 30 58.9877 30C58.945 30 58.9237 29.936 58.9237 29.808C58.9237 29.68 58.945 29.616 58.9877 29.616C59.713 29.616 60.2357 29.5627 60.5557 29.456C60.897 29.3493 61.121 29.1467 61.2277 28.848C61.3557 28.528 61.4197 28.048 61.4197 27.408V17.616C61.4197 16.976 61.3557 16.5067 61.2277 16.208C61.121 15.9093 60.897 15.7067 60.5557 15.6C60.2357 15.472 59.7237 15.408 59.0197 15.408C58.977 15.408 58.9557 15.344 58.9557 15.216C58.9557 15.088 58.977 15.024 59.0197 15.024L60.4597 15.056C61.2703 15.0987 61.889 15.12 62.3157 15.12C62.8917 15.12 63.4783 15.088 64.0757 15.024C64.289 15.0027 64.5877 14.9813 64.9717 14.96C65.377 14.9387 65.729 14.928 66.0277 14.928C67.5637 14.928 68.7583 15.2053 69.6117 15.76C70.465 16.3147 70.8917 17.0933 70.8917 18.096C70.8917 18.928 70.6143 19.664 70.0597 20.304C69.505 20.9227 68.7477 21.392 67.7877 21.712ZM65.1957 15.344C64.6837 15.344 64.2997 15.408 64.0437 15.536C63.7877 15.6427 63.6063 15.8667 63.4997 16.208C63.393 16.528 63.3397 17.0187 63.3397 17.68V21.712C63.7023 21.7333 64.2143 21.744 64.8757 21.744C66.2837 21.744 67.297 21.552 67.9157 21.168C68.5557 20.7627 68.8757 19.9627 68.8757 18.768C68.8757 17.5733 68.5663 16.7093 67.9477 16.176C67.329 15.6213 66.4117 15.344 65.1957 15.344ZM66.0597 29.616C69.0037 29.616 70.4757 28.4747 70.4757 26.192C70.4757 24.976 70.0277 24.016 69.1317 23.312C68.2357 22.608 66.8597 22.256 65.0037 22.256C64.257 22.256 63.7023 22.2773 63.3397 22.32V27.408C63.3397 28.2187 63.521 28.7947 63.8837 29.136C64.2677 29.456 64.993 29.616 66.0597 29.616ZM97.2612 29.616C97.3038 29.616 97.3252 29.68 97.3252 29.808C97.3252 29.936 97.3038 30 97.2612 30H93.1332C92.5998 30 91.5972 29.0933 90.1252 27.28C88.6745 25.4453 86.9038 22.896 84.8132 19.632C84.3012 19.7813 83.7252 19.856 83.0852 19.856C82.6798 19.856 82.1998 19.8347 81.6452 19.792V27.408C81.6452 28.0693 81.7092 28.5493 81.8372 28.848C81.9652 29.1467 82.2105 29.3493 82.5732 29.456C82.9572 29.5627 83.5545 29.616 84.3652 29.616C84.4292 29.616 84.4612 29.68 84.4612 29.808C84.4612 29.936 84.4292 30 84.3652 30C83.7038 30 83.1812 29.9893 82.7972 29.968L80.5892 29.936L78.4132 29.968C78.0292 29.9893 77.4852 30 76.7812 30C76.7385 30 76.7172 29.936 76.7172 29.808C76.7172 29.68 76.7385 29.616 76.7812 29.616C77.5918 29.616 78.1892 29.5627 78.5732 29.456C78.9572 29.328 79.2238 29.1147 79.3732 28.816C79.5225 28.5173 79.5972 28.048 79.5972 27.408V12.592C79.5972 11.952 79.5225 11.4827 79.3732 11.184C79.2452 10.8853 78.9892 10.6827 78.6052 10.576C78.2425 10.448 77.6558 10.384 76.8452 10.384C76.7812 10.384 76.7492 10.32 76.7492 10.192C76.7492 10.064 76.7812 10 76.8452 10L78.4132 10.032C79.3092 10.0747 80.0345 10.096 80.5892 10.096C80.9732 10.096 81.3358 10.0853 81.6772 10.064C82.0185 10.0427 82.3172 10.0213 82.5732 10C83.2558 9.936 83.8745 9.904 84.4292 9.904C86.1572 9.904 87.4905 10.256 88.4292 10.96C89.3678 11.664 89.8372 12.6453 89.8372 13.904C89.8372 14.928 89.5385 15.8987 88.9412 16.816C88.3438 17.712 87.5545 18.4267 86.5732 18.96C88.3865 21.6693 89.9118 23.792 91.1492 25.328C92.3865 26.8427 93.4852 27.9413 94.4452 28.624C95.4052 29.2853 96.3438 29.616 97.2612 29.616ZM81.6452 18.992C82.1785 19.0773 82.8078 19.12 83.5332 19.12C85.0052 19.12 86.0612 18.8107 86.7012 18.192C87.3412 17.552 87.6612 16.496 87.6612 15.024C87.6612 11.9307 86.3598 10.384 83.7572 10.384C83.1812 10.384 82.7438 10.4373 82.4452 10.544C82.1678 10.6293 81.9652 10.832 81.8372 11.152C81.7092 11.4507 81.6452 11.952 81.6452 12.656V18.992ZM111.72 25.744C111.72 25.68 111.774 25.648 111.88 25.648C112.008 25.648 112.072 25.68 112.072 25.744C111.923 27.28 111.848 28.5387 111.848 29.52C111.848 29.6907 111.816 29.8187 111.752 29.904C111.688 29.968 111.56 30 111.368 30H99.6564C99.6137 30 99.5924 29.936 99.5924 29.808C99.5924 29.68 99.6137 29.616 99.6564 29.616C100.36 29.616 100.872 29.5627 101.192 29.456C101.512 29.3493 101.726 29.1467 101.832 28.848C101.96 28.528 102.024 28.048 102.024 27.408V17.616C102.024 16.976 101.96 16.5067 101.832 16.208C101.726 15.9093 101.512 15.7067 101.192 15.6C100.872 15.472 100.36 15.408 99.6564 15.408C99.6137 15.408 99.5924 15.344 99.5924 15.216C99.5924 15.088 99.6137 15.024 99.6564 15.024H110.792C111.006 15.024 111.112 15.1093 111.112 15.28L111.144 17.264C111.166 17.6693 111.176 18.1813 111.176 18.8C111.176 18.864 111.112 18.896 110.984 18.896C110.856 18.896 110.792 18.864 110.792 18.8C110.707 17.8187 110.344 17.0187 109.704 16.4C109.086 15.76 108.318 15.44 107.4 15.44H106.504C105.758 15.44 105.214 15.504 104.872 15.632C104.531 15.7387 104.296 15.9413 104.168 16.24C104.04 16.5387 103.976 17.008 103.976 17.648V22.032C106.046 22.0107 107.454 21.9573 108.2 21.872C108.968 21.7653 109.406 21.712 109.512 21.712C109.619 21.712 109.672 21.936 109.672 22.384C109.672 22.8747 109.619 23.12 109.512 23.12C109.427 23.12 109 23.0667 108.232 22.96C107.464 22.832 106.046 22.7467 103.976 22.704V27.28C103.976 27.8987 104.04 28.368 104.168 28.688C104.296 28.9867 104.531 29.2 104.872 29.328C105.235 29.4347 105.779 29.488 106.504 29.488H108.04C108.894 29.488 109.662 29.1467 110.344 28.464C111.027 27.76 111.486 26.8533 111.72 25.744ZM118.756 17.616C118.756 18.256 118.916 18.8213 119.236 19.312C119.577 19.7813 119.993 20.176 120.484 20.496C120.975 20.816 121.625 21.1893 122.436 21.616C123.311 22.0853 124.015 22.5013 124.548 22.864C125.081 23.2053 125.529 23.6427 125.892 24.176C126.255 24.7093 126.436 25.3493 126.436 26.096C126.436 26.8853 126.212 27.6107 125.764 28.272C125.337 28.912 124.719 29.424 123.908 29.808C123.097 30.192 122.148 30.384 121.06 30.384C119.503 30.384 118.212 30.0107 117.188 29.264C117.081 29.2213 117.007 29.1573 116.964 29.072C116.943 28.9867 116.921 28.848 116.9 28.656L116.58 25.488C116.559 25.4027 116.601 25.3493 116.708 25.328C116.836 25.3067 116.921 25.3387 116.964 25.424C117.263 26.6613 117.849 27.7173 118.724 28.592C119.62 29.4453 120.612 29.872 121.7 29.872C122.447 29.872 123.087 29.6587 123.62 29.232C124.175 28.784 124.452 28.1013 124.452 27.184C124.452 26.2027 124.132 25.4027 123.492 24.784C122.852 24.1653 121.924 23.536 120.708 22.896C119.855 22.4267 119.172 22.0213 118.66 21.68C118.169 21.3173 117.753 20.88 117.412 20.368C117.071 19.856 116.9 19.2373 116.9 18.512C116.9 17.296 117.369 16.3467 118.308 15.664C119.247 14.9813 120.388 14.64 121.732 14.64C122.863 14.64 123.929 14.8853 124.932 15.376C125.124 15.4827 125.241 15.568 125.284 15.632C125.348 15.6747 125.391 15.7707 125.412 15.92L125.636 18.704C125.636 18.7893 125.572 18.8427 125.444 18.864C125.337 18.8853 125.273 18.8533 125.252 18.768C125.145 18.2347 124.9 17.6907 124.516 17.136C124.153 16.56 123.673 16.08 123.076 15.696C122.5 15.312 121.86 15.12 121.156 15.12C120.388 15.12 119.791 15.3547 119.364 15.824C118.959 16.2933 118.756 16.8907 118.756 17.616Z" fill="white"/>
<path d="M0.75 8L0.75 34" stroke="white" stroke-width="1.5"/>
</svg>
