<svg width="24" height="24" viewBox="0 0 24 24" fill="none" xmlns="http://www.w3.org/2000/svg">
<path d="M8.16999 13.0031C8.40081 13.0031 8.62643 12.9346 8.81835 12.8064C9.01026 12.6782 9.15983 12.4959 9.24816 12.2827C9.33649 12.0694 9.3596 11.8348 9.31457 11.6084C9.26954 11.382 9.1584 11.1741 8.99519 11.0109C8.83198 10.8477 8.62404 10.7365 8.39766 10.6915C8.17129 10.6465 7.93664 10.6696 7.7234 10.7579C7.51016 10.8462 7.3279 10.9958 7.19967 11.1877C7.07144 11.3796 7.00299 11.6053 7.00299 11.8361C7.00299 12.1456 7.12595 12.4424 7.3448 12.6613C7.56365 12.8801 7.86049 13.0031 8.16999 13.0031ZM14.67 11.8361C14.67 12.0669 14.7385 12.2926 14.8667 12.4845C14.995 12.6765 15.1773 12.826 15.3906 12.9143C15.6039 13.0026 15.8386 13.0257 16.065 12.9806C16.2914 12.9355 16.4994 12.8242 16.6625 12.6609C16.8257 12.4976 16.9368 12.2896 16.9817 12.0631C17.0266 11.8367 17.0034 11.602 16.9149 11.3888C16.8264 11.1756 16.6767 10.9934 16.4846 10.8653C16.2926 10.7371 16.0668 10.6689 15.836 10.6691C15.5267 10.6693 15.2301 10.7924 15.0114 11.0112C14.7928 11.2301 14.67 11.5267 14.67 11.8361ZM12 23.4971C14.2745 23.4971 16.4979 22.8226 18.3891 21.559C20.2802 20.2953 21.7542 18.4993 22.6246 16.3979C23.495 14.2966 23.7228 11.9843 23.279 9.75353C22.8353 7.52275 21.74 5.47365 20.1317 3.86534C18.5234 2.25704 16.4743 1.16177 14.2435 0.718041C12.0128 0.274312 9.70048 0.50205 7.59913 1.37246C5.49778 2.24286 3.70173 3.71685 2.43809 5.60801C1.17446 7.49918 0.499993 9.72259 0.499993 11.9971C0.503434 15.046 1.71614 17.9691 3.87207 20.125C6.02799 22.2809 8.95106 23.4936 12 23.4971ZM12 2.49707C13.8789 2.49707 15.7156 3.05424 17.2779 4.09811C18.8402 5.14198 20.0578 6.62568 20.7768 8.36158C21.4959 10.0975 21.684 12.0076 21.3175 13.8504C20.9509 15.6932 20.0461 17.386 18.7175 18.7146C17.3889 20.0432 15.6962 20.948 13.8534 21.3145C12.0105 21.6811 10.1004 21.493 8.3645 20.7739C6.6286 20.0549 5.1449 18.8373 4.10103 17.275C3.05716 15.7127 2.49999 13.876 2.49999 11.9971C2.50264 9.47833 3.50438 7.06351 5.2854 5.28248C7.06642 3.50146 9.48125 2.49972 12 2.49707Z" fill="#262626"/>
</svg>
