<svg width="53" height="42" viewBox="0 0 53 42" fill="none" xmlns="http://www.w3.org/2000/svg">
<path d="M26.2634 31.5L29.6942 28.0398L25.1987 23.5057L21.7679 26.9659V28.6364H24.6071V31.5H26.2634ZM39.2768 10.0227C38.9613 9.70455 38.636 9.71449 38.3008 10.0526L27.9492 20.4929C27.614 20.831 27.6042 21.1591 27.9196 21.4773C28.2351 21.7955 28.5605 21.7855 28.8956 21.4474L39.2472 11.0071C39.5824 10.669 39.5923 10.3409 39.2768 10.0227ZM41.6429 27.7415V33.4091C41.6429 35.7756 40.8098 37.799 39.1437 39.4794C37.4776 41.1598 35.4714 42 33.125 42H8.51786C6.1715 42 4.16527 41.1598 2.49916 39.4794C0.833054 37.799 0 35.7756 0 33.4091V8.59091C0 6.22443 0.833054 4.20099 2.49916 2.5206C4.16527 0.840199 6.1715 0 8.51786 0H33.125C34.3672 0 35.5206 0.24858 36.5854 0.745739C36.8811 0.884943 37.0586 1.11364 37.1177 1.43182C37.1769 1.76989 37.0882 2.05824 36.8516 2.29688L35.4023 3.75852C35.1263 4.03693 34.8108 4.11648 34.4559 3.99716C34.0024 3.87784 33.5588 3.81818 33.125 3.81818H8.51786C7.21652 3.81818 6.10249 4.28551 5.17578 5.22017C4.24907 6.15483 3.78571 7.27841 3.78571 8.59091V33.4091C3.78571 34.7216 4.24907 35.8452 5.17578 36.7798C6.10249 37.7145 7.21652 38.1818 8.51786 38.1818H33.125C34.4263 38.1818 35.5404 37.7145 36.4671 36.7798C37.3938 35.8452 37.8571 34.7216 37.8571 33.4091V29.6506C37.8571 29.392 37.9459 29.1733 38.1233 28.9943L40.0162 27.0852C40.3119 26.7869 40.657 26.7173 41.0513 26.8764C41.4457 27.0355 41.6429 27.3239 41.6429 27.7415ZM38.8036 5.72727L47.3214 14.3182L27.4464 34.3636H18.9286V25.7727L38.8036 5.72727ZM51.9353 9.66477L49.2143 12.4091L40.6964 3.81818L43.4174 1.07386C43.9695 0.517045 44.6399 0.238636 45.4286 0.238636C46.2173 0.238636 46.8876 0.517045 47.4397 1.07386L51.9353 5.60795C52.4874 6.16477 52.7634 6.84091 52.7634 7.63636C52.7634 8.43182 52.4874 9.10795 51.9353 9.66477Z" fill="#9B9B9B"/>
</svg>
