<svg width="44" height="44" viewBox="0 0 44 44" fill="none" xmlns="http://www.w3.org/2000/svg">
<path d="M39.4377 15.3422C38.4835 14.0415 37.1525 12.518 35.6923 11.0577C34.232 9.5975 32.7085 8.2665 31.4077 7.31225C29.1912 5.687 28.116 5.5 27.5 5.5H11.6875C9.79275 5.5 8.25 7.04275 8.25 8.9375V40.5625C8.25 42.4573 9.79275 44 11.6875 44H37.8125C39.7073 44 41.25 42.4573 41.25 40.5625V19.25C41.25 18.634 41.063 17.5587 39.4377 15.3422ZM33.7452 13.0048C35.0652 14.3248 36.0992 15.5128 36.8637 16.5H30.2472V9.88625C31.2345 10.6508 32.4253 11.6848 33.7425 13.0048H33.7452ZM38.5 40.5625C38.5 40.9365 38.1865 41.25 37.8125 41.25H11.6875C11.5058 41.2479 11.3322 41.1747 11.2037 41.0463C11.0753 40.9178 11.0021 40.7442 11 40.5625V8.9375C11 8.56625 11.3135 8.25 11.6875 8.25H27.5V17.875C27.5 18.2397 27.6449 18.5894 27.9027 18.8473C28.1606 19.1051 28.5103 19.25 28.875 19.25H38.5V40.5625Z" fill="#9B9B9B"/>
<path d="M25.9077 1.81225C23.6912 0.187 22.616 0 22 0H6.1875C4.29275 0 2.75 1.54275 2.75 3.4375V35.0625C2.75 36.7235 3.9325 38.1123 5.5 38.4313V3.4375C5.5 3.06625 5.81625 2.75 6.1875 2.75H27.1068C26.7145 2.42685 26.3138 2.11416 25.905 1.81225H25.9077Z" fill="#9B9B9B"/>
</svg>
