<svg width="48" height="48" viewBox="0 0 48 48" fill="none" xmlns="http://www.w3.org/2000/svg">
<path d="M30.5778 29.3539C30.2843 29.2579 28.4289 28.4216 29.5883 24.8973H29.5717C32.5938 21.7847 34.9034 16.7761 34.9034 11.845C34.9034 4.26286 29.8615 0.288086 24.0018 0.288086C18.1385 0.288086 13.1243 4.26101 13.1243 11.845C13.1243 16.7964 15.4209 21.8253 18.4615 24.9305C19.6468 28.0395 17.5274 29.1933 17.0843 29.3539C10.9477 31.5749 3.74768 35.6198 3.74768 39.613V41.1102C3.74768 46.5509 14.2966 47.7878 24.0591 47.7878C33.8363 47.7878 44.2523 46.5509 44.2523 41.1102V39.613C44.2523 35.4998 37.0172 31.4862 30.5778 29.3539ZM20.3945 45.4321C20.3945 40.7262 23.3908 34.3736 23.3908 34.3736L21.3175 32.7472C21.3175 31.1927 24 29.5662 24 29.5662C24 29.5662 26.6751 31.2186 26.6751 32.7472L24.6092 34.3736C24.6092 34.3736 27.6055 40.7022 27.6055 45.4838C27.6055 46.2333 20.3945 46.0598 20.3945 45.4321V45.4321Z" fill="#7044EB"/>
</svg>
